<?xml version="1.0" encoding="UTF-8"?>
<svg width="320px" height="320px" viewBox="0 0 320 320" version="1.1" xmlns="http://www.w3.org/2000/svg" xmlns:xlink="http://www.w3.org/1999/xlink">
    <!-- Generator: Sketch 55.2 (78181) - https://sketchapp.com -->
    <title>Mobile</title>
    <desc>Created with Sketch.</desc>
    <g id="Mobile" stroke="none" stroke-width="1" fill="none" fill-rule="evenodd">
        <circle id="Oval" fill="#FE557F" cx="159.5" cy="160.5" r="111.5"></circle>
        <path d="M159.960258,144.623032 L181.069059,101 L216.920515,101 L176.62951,172.712402 L176.62951,218.669507 L143.291006,218.669507 L143.291006,172.712402 L103,101 L139.018986,101 L159.960258,144.623032 Z M171.635367,240.289598 C166.225979,240.289598 164.858432,241.144394 160,240.289598 L160,221.545243 C161.602782,221.78947 159.539426,220.782035 161.342555,221.087319 C163.145684,221.392603 165.099045,221.545243 167.202696,221.545243 C172.111215,221.545243 175.617247,220.344476 177.720897,217.942907 C179.824548,215.541338 180.876358,211.43024 180.876358,205.609488 L180.876358,123 L210.702972,123 L210.702972,203.533566 C210.702972,215.62282 207.447371,224.771032 200.936071,230.978477 C194.424771,237.185922 184.657967,240.289598 171.635367,240.289598 Z M217,227.617028 C217,223.267122 218.288404,219.91018 220.86525,217.546101 C223.442096,215.182022 227.189106,214 232.10639,214 C236.787267,214 240.380614,215.182022 242.886537,217.546101 C245.392461,219.91018 246.645405,223.267122 246.645405,227.617028 C246.645405,231.87237 245.357001,235.193852 242.780154,237.581572 C240.203308,239.969292 236.645422,241.163134 232.10639,241.163134 C227.425514,241.163134 223.737605,239.981112 221.042555,237.617033 C218.347505,235.252954 217,231.919652 217,227.617028 Z" id="YJ." fill="#FFFFFF"></path>
    </g>
</svg>